<?xml version="1.0" standalone="no"?>
<!DOCTYPE svg PUBLIC "-//W3C//DTD SVG 20010904//EN"
 "http://www.w3.org/TR/2001/REC-SVG-20010904/DTD/svg10.dtd">
<svg version="1.0" xmlns="http://www.w3.org/2000/svg"
 width="256.000000pt" height="256.000000pt" viewBox="0 0 256.000000 256.000000"
 preserveAspectRatio="xMidYMid meet">

<g transform="translate(0.000000,256.000000) scale(0.100000,-0.100000)"
fill="#000000" stroke="none">
<path d="M0 1280 l0 -1280 1280 0 1280 0 0 1280 0 1280 -1280 0 -1280 0 0
-1280z m629 901 c7 -5 11 -15 9 -22 -3 -10 -28 -12 -101 -10 -118 3 -178 -13
-265 -70 -150 -99 -182 -228 -82 -341 51 -58 99 -77 217 -85 l95 -6 -12 23
c-17 32 -7 132 16 164 43 57 118 63 168 14 44 -43 56 -69 56 -115 0 -82 -40
-153 -86 -153 -13 0 -43 6 -66 14 -24 8 -95 16 -158 18 -165 6 -235 41 -298
148 -23 38 -27 56 -26 115 0 81 13 110 77 176 43 46 150 113 205 129 36 11
233 12 251 1z m1128 -171 c1 -8 5 -41 8 -72 l6 -58 192 -2 c173 -3 192 -5 195
-20 3 -17 -11 -18 -182 -18 -102 0 -187 -4 -190 -8 -5 -8 11 -76 35 -150 8
-24 8 -37 -1 -47 -23 -27 -28 -17 -70 148 l-13 48 -74 -7 c-70 -6 -75 -5 -71
12 2 15 17 21 70 28 l67 8 -6 80 c-6 75 -5 80 13 76 10 -2 20 -10 21 -18z
m-937 -119 c0 -11 -4 -23 -10 -26 -17 -11 -9 -88 13 -130 31 -56 70 -59 142
-11 30 19 62 47 72 62 34 49 54 67 65 56 25 -25 -29 -97 -116 -154 -68 -44
-140 -53 -168 -20 -40 45 -60 104 -56 165 4 57 16 76 46 77 6 0 12 -9 12 -19z
m661 -52 c31 -31 60 -107 66 -171 5 -49 3 -58 -10 -58 -10 0 -19 11 -23 28
-17 76 -28 110 -45 144 -15 30 -25 38 -47 38 -33 0 -95 -38 -177 -108 -56 -49
-100 -65 -100 -36 0 13 92 92 169 144 70 47 131 55 167 19z m-1060 -409 c5 -8
27 -70 51 -137 l42 -123 33 0 c18 0 79 7 135 15 149 22 263 24 263 5 0 -11
-16 -17 -60 -22 -225 -26 -345 -43 -345 -51 0 -4 16 -43 35 -84 22 -49 32 -80
26 -86 -19 -19 -37 2 -70 82 -18 45 -36 83 -40 85 -5 4 -71 -5 -158 -19 -28
-5 -33 -3 -33 14 0 23 12 27 98 36 34 4 65 11 68 16 5 9 -11 60 -62 198 -13
35 -24 70 -24 78 0 18 30 13 41 -7z m723 -190 c70 -26 136 -129 136 -211 0
-90 -72 -131 -171 -97 -86 29 -139 97 -139 177 0 44 5 56 33 87 27 30 60 46
109 53 4 1 18 -3 32 -9z m666 -217 c0 -21 4 -54 10 -73 9 -33 21 -144 40 -365
10 -127 14 -135 56 -135 28 0 34 -4 34 -21 0 -20 -4 -21 -69 -17 -70 4 -111
24 -111 55 0 16 32 17 48 1 13 -13 10 66 -8 227 -5 44 -12 109 -15 145 -8 89
-17 98 -39 42 -20 -48 -34 -64 -48 -56 -15 9 -8 40 26 120 18 43 36 87 39 97
4 9 13 17 22 17 11 0 15 -11 15 -37z m281 -119 c4 -27 12 -114 18 -194 7 -80
17 -178 23 -218 10 -70 12 -73 37 -72 42 3 51 1 51 -14 0 -19 -22 -26 -80 -26
l-49 0 1 43 c1 23 -7 129 -17 236 l-19 193 -18 -35 c-22 -44 -32 -51 -48 -33
-9 12 -3 31 31 96 23 44 47 79 53 77 6 -2 14 -26 17 -53z"/>
<path d="M534 1795 c-7 -19 -14 -48 -14 -65 0 -41 45 -89 93 -100 34 -7 40 -5
53 16 23 34 29 100 13 130 -16 32 -58 54 -99 54 -26 0 -33 -6 -46 -35z"/>
<path d="M1041 1174 c-78 -65 -3 -198 118 -207 77 -6 103 52 60 140 -44 90
-118 118 -178 67z"/>
</g>
</svg>
